<?xml version="1.0" encoding="UTF-8" standalone="no"?>
<svg id="svg2" xmlns:rdf="http://www.w3.org/1999/02/22-rdf-syntax-ns#" xmlns="http://www.w3.org/2000/svg" height="16" width="16" version="1.1" xmlns:cc="http://creativecommons.org/ns#" xmlns:dc="http://purl.org/dc/elements/1.1/" viewBox="0 0 16 16">
 <metadata id="metadata27">
  <rdf:RDF>
   <cc:Work rdf:about="">
    <dc:format>image/svg+xml</dc:format>
    <dc:type rdf:resource="http://purl.org/dc/dcmitype/StillImage"/>
    <dc:title/>
   </cc:Work>
  </rdf:RDF>
 </metadata>
 <path id="ellipse4172" d="m8 1.4004-4.8008 1.1992-0.6758 5.4082-1.7226 0.1914-0.8008 0.8008h16l-0.801-0.8008-1.722-0.1914-0.676-5.4082zm0 4 4.7109 0.52344 0.25391 2.0273l-4.965-0.5507-4.9648 0.5508 0.2539-2.0274zm-2.8008 4.4004c-1.5452 0.000554-2.7978 1.074-2.7988 2.3984-0.0002513 1.3252 1.2527 2.3998 2.7988 2.4004 1.5469 0.00037 2.801-1.0745 2.8008-2.4004-0.0002514 1.3259 1.2539 2.4008 2.8008 2.4004 1.5461-0.000555 2.7991-1.0751 2.7988-2.4004-0.001-1.3245-1.2536-2.3979-2.7988-2.3984zm0 1.1992c0.88386-0.000647 1.601 0.53632 1.6016 1.1992 0.0008647 0.66366-0.71669 1.2018-1.6016 1.2012-0.8841 0-1.6005-0.538-1.5996-1.201 0.0006-0.662 0.7165-1.199 1.5996-1.199zm5.6016 0c0.8831 0.000161 1.599 0.5369 1.5996 1.1992 0.000864 0.66308-0.7155 1.201-1.5996 1.2012-0.8851 0.001-1.6026-0.537-1.6018-1.201 0.0006-0.663 0.7177-1.2 1.6018-1.199z"/>
</svg>
