<?xml version="1.0" encoding="UTF-8" standalone="no"?>
<svg viewBox="0 0 16 16">
 <path d="m8 1.4-4.8 1.2-0.6758 5.4082-1.7226 0.1914-0.8 0.8h16l-0.8-0.8-1.722-0.1914-0.676-5.4082zm0 4 4.7109 0.52344 0.25391 2.0273l-4.965-0.5507-4.9648 0.55 0.2539-2.0274zm-2.8 4.4c-1.5452 0-2.8 1.074-2.8 2.4-0 1.3252 1.2527 2.4 2.8 2.4 1.5469 0 2.8-1.0745 2.8-2.4-0 1.3259 1.2539 2.4 2.8 2.4 1.5461-0 2.8-1.0751 2.8-2.4-0-1.3245-1.2536-2.3979-2.8-2.4zm0 1.2c0.88386-0 1.60 0.53632 1.60 1.2 0 0.66366-0.71669 1.2018-1.6016 1.2012-0.8841 0-1.6-0.538-1.6-1.2 0-0.662 0.7165-1.2 1.6-1.2zm5.6016 0c0.8831 0 1.6 0.5369 1.6 1.2 0 0.66308-0.7155 1.2-1.6 1.2-0.8851 0-1.6026-0.537-1.6-1.2 0-0.663 0.7177-1.2 1.6-1.2z"/>
</svg>
