<?xml version="1.0" encoding="UTF-8" standalone="no"?>
<svg
   xmlns:dc="http://purl.org/dc/elements/1.1/"
   xmlns:cc="http://creativecommons.org/ns#"
   xmlns:rdf="http://www.w3.org/1999/02/22-rdf-syntax-ns#"
   xmlns:svg="http://www.w3.org/2000/svg"
   xmlns="http://www.w3.org/2000/svg"
   xmlns:sodipodi="http://sodipodi.sourceforge.net/DTD/sodipodi-0.dtd"
   xmlns:inkscape="http://www.inkscape.org/namespaces/inkscape"
   id="svg2"
   sodipodi:docname="eisner.svg"
   height="16"
   viewBox="0 0 16 16"
   width="16"
   version="1.1"
   inkscape:version="0.91 r13725">
  <metadata
     id="metadata19">
    <rdf:RDF>
      <cc:Work
         rdf:about="">
        <dc:format>image/svg+xml</dc:format>
        <dc:type
           rdf:resource="http://purl.org/dc/dcmitype/StillImage" />
        <dc:title></dc:title>
      </cc:Work>
    </rdf:RDF>
  </metadata>
  <defs
     id="defs17" />
  <sodipodi:namedview
     id="namedview23"
     bordercolor="#666666"
     inkscape:pageshadow="2"
     guidetolerance="10"
     pagecolor="#ffffff"
     gridtolerance="10"
     inkscape:window-maximized="1"
     inkscape:zoom="33.625"
     objecttolerance="10"
     borderopacity="1"
     inkscape:current-layer="svg2"
     inkscape:cx="8"
     inkscape:cy="8"
     inkscape:window-y="-8"
     inkscape:window-x="-8"
     inkscape:window-width="1366"
     showgrid="false"
     inkscape:pageopacity="0"
     inkscape:window-height="705" />
  <path
     style="fill:#000000;stroke:none;stroke-width:0.1"
     d="M 5.6660153,9.5000002 A 2.3333333,2 0 0 0 3.3339842,11.5 a 2.3333333,2 0 0 0 2.3320311,2 2.3333333,2 0 0 0 2.3339844,-2 2.3333333,2 0 0 0 2.3339843,2 2.3333333,2 0 0 0 2.332032,-2 2.3333333,2 0 0 0 -2.332032,-1.9999998 l -2.3339843,0 -2.3339844,0 z m 0,0.9999998 a 1.3333334,1 0 0 1 1.3339844,1 1.3333334,1 0 0 1 -1.3339844,1 1.3333334,1 0 0 1 -1.3320311,-1 1.3333334,1 0 0 1 1.3320311,-1 z m 4.6679687,0 a 1.3333334,1 0 0 1 1.332032,1 1.3333334,1 0 0 1 -1.332032,1 1.3333334,1 0 0 1 -1.3339841,-1 1.3333334,1 0 0 1 1.3339841,-1 z"
     id="ellipse4172"
     inkscape:connector-curvature="0" />
  <path
     style="fill:#000000;fill-rule:evenodd;stroke:none;stroke-width:0.1"
     d="m 7.9999997,2.4999998 -3.9999999,1 L 3.6484373,6.3183592 7.9999997,5.8339842 12.351562,6.3183592 12,3.4999998 l -4.0000003,-1 z"
     id="path4136"
     inkscape:connector-curvature="0" />
  <path
     id="path4138"
     d="m 1.333333,8.8339742 0.6666667,-0.66667 6,-0.66667 L 14,8.1673042 l 0.666667,0.66667 z"
     inkscape:connector-curvature="0"
     style="fill:#000000;fill-rule:evenodd;stroke:none;stroke-width:0.1" />
</svg>
