<?xml version="1.0" encoding="UTF-8" standalone="no"?>
<svg
   xmlns:dc="http://purl.org/dc/elements/1.1/"
   xmlns:cc="http://creativecommons.org/ns#"
   xmlns:rdf="http://www.w3.org/1999/02/22-rdf-syntax-ns#"
   xmlns:svg="http://www.w3.org/2000/svg"
   xmlns="http://www.w3.org/2000/svg"
   xmlns:sodipodi="http://sodipodi.sourceforge.net/DTD/sodipodi-0.dtd"
   xmlns:inkscape="http://www.inkscape.org/namespaces/inkscape"
   viewBox="0 0 16 16"
   version="1.1"
   width="16"
   height="16"
   id="svg2"
   inkscape:version="0.91 r13725"
   sodipodi:docname="avatar3.svg">
  <sodipodi:namedview
     pagecolor="#ffffff"
     bordercolor="#666666"
     borderopacity="1"
     objecttolerance="10"
     gridtolerance="10"
     guidetolerance="10"
     inkscape:pageopacity="0"
     inkscape:pageshadow="2"
     inkscape:window-width="1366"
     inkscape:window-height="705"
     id="namedview22"
     showgrid="false"
     inkscape:zoom="33.625"
     inkscape:cx="8"
     inkscape:cy="8"
     inkscape:window-x="-8"
     inkscape:window-y="-8"
     inkscape:window-maximized="1"
     inkscape:current-layer="svg2" />
  <metadata
     id="metadata27">
    <rdf:RDF>
      <cc:Work
         rdf:about="">
        <dc:format>image/svg+xml</dc:format>
        <dc:type
           rdf:resource="http://purl.org/dc/dcmitype/StillImage" />
        <dc:title />
      </cc:Work>
    </rdf:RDF>
  </metadata>
  <defs
     id="defs25" />
  <path
     style="color:#000000;font-style:normal;font-variant:normal;font-weight:normal;font-stretch:normal;font-size:medium;line-height:normal;font-family:sans-serif;text-indent:0;text-align:start;text-decoration:none;text-decoration-line:none;text-decoration-style:solid;text-decoration-color:#000000;letter-spacing:normal;word-spacing:normal;text-transform:none;direction:ltr;block-progression:tb;writing-mode:lr-tb;baseline-shift:baseline;text-anchor:start;white-space:normal;clip-rule:nonzero;display:inline;overflow:visible;visibility:visible;opacity:1;isolation:auto;mix-blend-mode:normal;color-interpolation:sRGB;color-interpolation-filters:linearRGB;solid-color:#000000;solid-opacity:1;fill:#ffffff;fill-opacity:1;fill-rule:nonzero;stroke:none;stroke-width:1;stroke-linecap:round;stroke-linejoin:round;stroke-miterlimit:4;stroke-dasharray:none;stroke-dashoffset:0;stroke-opacity:1;color-rendering:auto;image-rendering:auto;shape-rendering:auto;text-rendering:auto;enable-background:accumulate"
     d="M 7.9726562 1.3125 A 0.50005 0.50005 0 0 0 7.8789062 1.328125 L 3.3789062 2.453125 A 0.50005 0.50005 0 0 0 3.0039062 2.875 L 2.4179688 7.5546875 L 1.1953125 7.6914062 A 0.50005 0.50005 0 0 0 0.89648438 7.8339844 L 0.14648438 8.5839844 A 0.50005 0.50005 0 0 0 0.5 9.4375 L 2.75 9.4375 L 4.6816406 9.4375 C 3.3546585 9.7373949 2.2500001 10.625836 2.25 11.9375 C 2.2500001 13.495397 3.6936354 14.6875 5.375 14.6875 C 6.4824851 14.6875 7.4434192 14.142027 8 13.34375 C 8.5565808 14.142027 9.5175149 14.6875 10.625 14.6875 C 12.306365 14.6875 13.75 13.495397 13.75 11.9375 C 13.75 10.625836 12.645341 9.7373949 11.318359 9.4375 L 15.5 9.4375 A 0.50005 0.50005 0 0 0 15.853516 8.5839844 L 15.103516 7.8339844 A 0.50005 0.50005 0 0 0 14.804688 7.6914062 L 13.582031 7.5546875 L 12.996094 2.875 A 0.50005 0.50005 0 0 0 12.621094 2.453125 L 8.1210938 1.328125 A 0.50005 0.50005 0 0 0 7.9726562 1.3125 z M 5.375 11.3125 C 5.687881 11.3125 5.9609797 11.412629 6.1347656 11.542969 C 6.3085515 11.673308 6.375 11.806986 6.375 11.9375 C 6.375 12.068014 6.308552 12.201692 6.1347656 12.332031 C 5.9609797 12.462371 5.687881 12.5625 5.375 12.5625 C 5.062119 12.5625 4.7890203 12.462371 4.6152344 12.332031 C 4.4414485 12.201692 4.375 12.068014 4.375 11.9375 C 4.375 11.806986 4.441448 11.673308 4.6152344 11.542969 C 4.7890203 11.412629 5.062119 11.3125 5.375 11.3125 z M 10.625 11.3125 C 10.937881 11.3125 11.21098 11.412629 11.384766 11.542969 C 11.558552 11.673308 11.625 11.806986 11.625 11.9375 C 11.625 12.068014 11.55855 12.201692 11.384766 12.332031 C 11.21098 12.462371 10.937881 12.5625 10.625 12.5625 C 10.312119 12.5625 10.03902 12.462371 9.8652344 12.332031 C 9.6914485 12.201692 9.625 12.068014 9.625 11.9375 C 9.625 11.806986 9.691448 11.673308 9.8652344 11.542969 C 10.03902 11.412629 10.312119 11.3125 10.625 11.3125 z "
     id="path4188" />
  <path
     style="fill:#1a1a1a;fill-opacity:1"
     d="m 8,9.6874958 0,2.2500012 a 2.6250001,2.2500001 0 0 0 2.625,2.250001 2.6250001,2.2500001 0 0 0 2.625,-2.250001 2.6250001,2.2500001 0 0 0 -2.625,-2.2500012 l -2.625,0 z m 2.625,1.1250002 a 1.5,1.1250001 0 0 1 1.5,1.125001 1.5,1.1250001 0 0 1 -1.5,1.125 1.5,1.1250001 0 0 1 -1.4999994,-1.125 A 1.5,1.1250001 0 0 1 10.625,10.812496 Z"
     id="ellipse4172"
     inkscape:connector-curvature="0" />
  <path
     d="m 2.7500001,8.9375021 10.4999999,0 L 12.5,2.9374924 8,1.812502 3.4999998,2.9374924 Z"
     id="path4136"
     inkscape:connector-curvature="0"
     style="fill:#214478;fill-rule:evenodd" />
  <path
     d="M 8,5.5625005 3.1036995,6.1067008 2.7500001,8.9375021 13.25,8.9375021 12.8963,6.1067008 8,5.5625005 Z"
     id="path4159"
     inkscape:connector-curvature="0"
     style="fill:#1a1a1a;fill-opacity:1;fill-rule:evenodd" />
  <path
     d="M 0.5,8.9375021 1.2499997,8.1874984 8,7.4374947 14.75,8.1874984 15.5,8.9375021 Z"
     id="path4138"
     inkscape:connector-curvature="0"
     style="fill:#214478;fill-rule:evenodd" />
  <path
     style="fill:#000000;fill-opacity:1"
     d="m 5.3750001,9.6874958 a 2.6250001,2.2500001 0 0 0 -2.625,2.2500012 2.6250001,2.2500001 0 0 0 2.625,2.250001 A 2.6250001,2.2500001 0 0 0 8,11.937497 l 0,-2.2500012 -2.6249999,0 z m 0,1.1250002 a 1.5,1.1250001 0 0 1 1.5000004,1.125001 1.5,1.1250001 0 0 1 -1.5000004,1.125 1.5,1.1250001 0 0 1 -1.5000005,-1.125 1.5,1.1250001 0 0 1 1.5000005,-1.125001 z"
     id="path4145"
     inkscape:connector-curvature="0" />
  <path
     d="M 2.7500001,8.9375021 8,8.9375021 8,1.812502 3.4999998,2.9374924 Z"
     id="path4194"
     inkscape:connector-curvature="0"
     style="fill:#162d50;fill-rule:evenodd" />
  <path
     style="fill:#000000;fill-opacity:1;fill-rule:evenodd"
     inkscape:connector-curvature="0"
     id="path4192"
     d="M 8,5.5625005 3.1036995,6.1067008 2.7500001,8.9375021 8,8.9375021 Z" />
  <path
     d="M 0.5,8.9375021 1.2499997,8.1874984 8,7.4374947 8,8.9375021 Z"
     id="path4190"
     inkscape:connector-curvature="0"
     style="fill:#162d50;fill-rule:evenodd" />
</svg>
