<?xml version="1.0" encoding="UTF-8" standalone="no"?>
<svg xmlns="http://www.w3.org/2000/svg" viewBox="0 0 64 64">
 <path d="m12.371 0c-6.8539 0-12.371 5.32-12.371 11.94v28.172c0 6.6 5.5171 11.914 12.371 11.914v11.974l12.373-11.974h26.885c6.854 0 12.371-5.4 12.371-12v-28.172c0-6.6-5.517-11.854-12.371-11.854zm0 1.5h39.258c6.079 0 10.871 4.65 10.871 10.414v28.172c0 5.764-4.792 10.414-10.871 10.414h-27.492l-10.266 9.955v-9.955h-1.5c-6.0785 0-10.871-4.7-10.871-10.5v-28.172c0-5.7641 4.7925-10.328 10.871-10.328zm0 1.5c-5.3136 0-9.371 3.98-9.371 8.94v28.172c0 4.9326 4.0574 8.9141 9.3711 8.9141h3v7.9101l8.1582-7.9101h28.1c5.3137 0 9.3711-3.9815 9.3711-8.9141v-28.172c0-4.9327-4.0574-8.9141-9.3711-8.9141zm0 3h39.258c3.798 0 6.3711 2.6361 6.3711 5.9141v3.0859h-32v6.5h22v9h-22v6.5h32v3.0859c0 3.278-2.573 5.914-6.371 5.914h-28.258c-3.798 0-6.3708-2.6362-6.3711-5.9141v-9.5859h-11v-9h11v-6.5h-11v-3.0859c-0-3.2779 2.573-5.914 6.371-5.914z" fill="#FFF"/>
</svg>