<?xml version="1.0" encoding="UTF-8" standalone="no"?>
<svg xmlns="http://www.w3.org/2000/svg" version="1.1" viewBox="0 0 64 64">
 <path d="m12.371-0.00216c-6.8539,0-12.371,5.32-12.371,11.94v28.172c0,6.6001,5.5171,11.914,12.371,11.914v12l12.373-12h26.885c6.854,0,12.371-5.4,12.371-12v-28.172c0-6.6-5.5171-11.914-12.371-11.914h-39.258z" fill="#E12"/>
 <path d="m12.371,1.4978,39.258,0c6.0786,0,10.871,4.65,10.871,10.414v28.172c0,5.7641-4.7925,10.414-10.871,10.414h-27.492l-10.266,9.9551v-9.9551h-1.5c-6.0785,0-10.871-4.7-10.871-10.5v-28.172c0-5.7641,4.7925-10.414,10.871-10.414z" fill="#FFF"/>
 <path d="M12.375,2.9062c-5.3137,0-9.375,3.9736-9.375,8.9058v28.188c0,5,4.0614,9,9.375,9h3v7.906l8.156-7.906h28.094c5.314,0,9.375-3.974,9.375-8.906v-28.188c0-4.9324-4.061-8.906-9.375-8.906h-39.25v-0.0938zm0,3.0938v0.0312h39.25c3.798,0,6.375,2.6283,6.375,5.9068v3.093h-32v6.5h22v9h-22v6.5h32v3.094c0,3.278-2.577,5.906-6.375,5.906h-28.25c-3.798,0-6.375-2.628-6.375-5.906v-9.594h-11v-9h11v-6.5h-11v-3.093c0-3.3005,2.5771-5.938,6.375-5.938z" fill="#E12"/>
</svg>