<?xml version="1.0" encoding="UTF-8" standalone="no"?>
<svg xmlns="http://www.w3.org/2000/svg" height="64" viewBox="0 0 64 64" width="64" version="1.1">
 <path d="M12.375,0c-6.8539,0-12.375,5.3062-12.375,11.906v28.188c0,6.6,5.5211,11.906,12.375,11.906v12l12.375-12h26.875c6.854,0,12.375-5.306,12.375-11.906v-28.188c0-6.5998-5.521-11.906-12.375-11.906h-39.25zm0,1.5h39.25c6.079,0,10.875,4.6421,10.875,10.406v28.188c0,5.764-4.796,10.406-10.875,10.406h-27.5l-10.25,9.969v-9.969h-1.5c-6.0786,0-10.875-4.642-10.875-10.406v-28.188c0-5.7639,4.7964-10.406,10.875-10.406zm0,1.5c-5.3137,0-9.375,3.9736-9.375,8.906v28.188c0,4.932,4.0613,8.906,9.375,8.906h3v7.906l8.156-7.906h28.094c5.314,0,9.375-3.974,9.375-8.906v-28.188c0-4.9324-4.061-8.906-9.375-8.906h-39.25z" fill="#FFF"/>
 <path d="m12.371,5.9978c-3.7979,0-6.371,2.64-6.371,5.94v3.086h11v6.5h-11v9h11v9.5859c0.000244,3.2779,2.5731,5.9141,6.3711,5.9141h28.258c3.798,0,6.3711-2.6362,6.3711-5.9141v-3.0859h-32v-6.5h22v-9.0001h-22v-6.5h32v-3.086c0-3.278-2.5731-5.914-6.3711-5.914h-39.258z" fill="#000"/>
</svg>