<?xml version="1.0" encoding="UTF-8" standalone="no"?>
<svg xmlns="http://www.w3.org/2000/svg" height="64" viewBox="0 0 64 64" width="64" version="1.1">
 <path d="m12.371-0.00216c-6.8539,0-12.371,5.32-12.371,11.94v28.172c0,6.6001,5.5171,11.914,12.371,11.914v12l12.373-12h26.885c6.854,0,12.371-5.4,12.371-12v-28.172c0-6.6-5.5171-11.914-12.371-11.914h-39.258z" fill="#FFF"/>
 <path d="m12.371,1.4978,39.258,0c6.0786,0,10.871,4.65,10.871,10.414v28.172c0,5.7641-4.7925,10.414-10.871,10.414h-27.492l-10.266,9.9551v-9.9551h-1.5c-6.0785,0-10.871-4.7-10.871-10.5v-28.172c0-5.7641,4.7925-10.414,10.871-10.414z" fill="#E12"/>
 <path d="m12.371,2.9978,39.258,0c5.3137,0,9.3711,3.9814,9.3711,8.9141v28.172c0,4.9326-4.0574,8.914-9.3711,8.914h-28.1l-8.1582,7.9102v-7.9102h-3c-5.3136,0-9.371-4-9.371-9v-28.172c0-4.9327,4.0574-8.9141,9.3711-8.9141z" fill="#FFF"/>
 <path d="m12.371,5.9978c-3.7979,0-6.371,2.64-6.371,5.94v3.086h11v6.5h-11v9.0001h11v9.5859c0.000244,3.2779,2.5731,5.9141,6.3711,5.9141h28.258c3.798,0,6.3711-2.6362,6.3711-5.9141v-3.0859h-32v-6.5h22v-9.0001h-22v-6.5h32v-3.086c0-3.278-2.5731-5.914-6.3711-5.914h-39.258z" fill="#000"/>
</svg>